# xmcd
#
# Track frame offsets: 
#        150
#        24222
#        39511
#        56981
#        81734
#        103502
#        118768
#        135058
#        153668
#        176385
#        191222
#        211966
#        231449
#        258350
#
# Disc length: 3773 seconds
#
# Revision: 0
# Processed by: cddbd v1.5.1PL2 Copyright (c) Steve Scherf et al.
# Submitted via: ExactAudioCopy v0.95a5
#
DISCID=c10ebb0e
DTITLE=Various Artist - BluesAlive VII
DYEAR=2002
DGENRE=Blues
TTITLE0=Silvia Josifoska - Midnight Train
TTITLE1=Walkin' Blues Band - Good Mornin' Baby
TTITLE2=Terry Lee Hale - Who's Fooling Who
TTITLE3=Vlasta Tresnak - Vesela
TTITLE4=Electric Blue - Come On
TTITLE5=Ivan Hlas Trio - Milacku, vrat se
TTITLE6=Sexy Mama - Sloopy Drunk
TTITLE7=The Red Hot Louisiana Band, C. J. Chenier - Blues
TTITLE8=Vladimir Merta - Zlata akcie
TTITLE9=Jiri Miza - Cizinec ve meste
TTITLE10=John Crampton - Skin And Bone
TTITLE11=ZVA 12-28 - Gotta Move
TTITLE12=Louisiana Red - Debby Blues
TTITLE13=123min - I See You Shine
EXTD=
EXTT0=
EXTT1=
EXTT2=
EXTT3=
EXTT4=
EXTT5=
EXTT6=
EXTT7=
EXTT8=
EXTT9=
EXTT10=
EXTT11=
EXTT12=
EXTT13=
PLAYORDER=
